<?xml version="1.0" encoding="UTF-8" standalone="no"?>
<!DOCTYPE svg PUBLIC "-//W3C//DTD SVG 1.1//EN" "http://www.w3.org/Graphics/SVG/1.1/DTD/svg11.dtd">
<!-- Created with Vectornator (http://vectornator.io/) -->
<svg height="100%" stroke-miterlimit="10" style="fill-rule:nonzero;clip-rule:evenodd;stroke-linecap:round;stroke-linejoin:round;" version="1.1" viewBox="0 0 986.4 262.8" width="100%" xml:space="preserve" xmlns="http://www.w3.org/2000/svg" xmlns:vectornator="http://vectornator.io" xmlns:xlink="http://www.w3.org/1999/xlink">
<defs/>
<g id="Untitled" vectornator:layerName="Untitled">
<g opacity="1">
<path d="M105.7 140C105.8 108.1 131.7 82.2 163.6 82.3C195.5 82.4 221.4 108.3 221.3 140.2C221.2 172.1 195.3 198 163.4 197.9C131.7 198.1 105.9 172.5 105.7 140.8C105.7 140.6 105.7 140.3 105.7 140Z" fill="#1075bb" fill-rule="nonzero" opacity="1" stroke="none"/>
<path d="M186.6 241.6C181.7 241.8 177.3 238.6 176.2 233.8C175.1 229.5 176.8 224.9 180.5 222.4C181.9 221.5 183.5 220.9 185.1 220.5C199.1 216.6 212 209.3 222.6 199.3C224.6 197.5 224.5 195.5 223.8 193.2C221.8 187 222 181 225.1 175.3C228.2 169.6 233.3 165.5 240.1 164.3C243.1 163.7 245 162.3 245.6 159.3C247 152.4 248.2 145.4 248.1 138.3C248 131.2 246.4 124.1 244.9 117.1C244.1 113.3 244.2 109.6 246.7 106.4C249.1 103.2 253.1 101.8 257 102.6C261.3 103.3 263.9 106.2 265.1 110.2C267.2 116.8 268.4 123.6 268.9 130.5C269.9 144.2 268.3 157.9 264.4 171C263.7 173.1 264.3 175 265.1 177C268.3 185.3 267.5 193.1 261.8 200C258.7 204 254.1 206.7 249.1 207.4C245.4 208 242 209.8 239.5 212.6C226.7 225.6 210.8 235.2 193.3 240.3C191.2 241.1 188.9 241.5 186.6 241.6Z" fill="#15a69d" fill-rule="nonzero" opacity="1" stroke="none"/>
<path d="M241.4 72.4C241.5 76.2 239.4 79.7 236 81.3C232.3 83.4 227.7 83 224.4 80.3C220.7 77.7 217.3 74.6 213.8 71.7C205.3 64.9 195.5 60 184.9 57.4C182.4 56.6 179.6 57.3 177.9 59.3C169.4 67.7 155.8 67.8 147.2 59.6C145.5 57.8 142.9 57.2 140.6 58C128.6 61.3 117.6 67.2 108.3 75.4C106.7 76.8 105 78.2 103.5 79.7C98.6 84.2 92.4 84.3 87.8 79.7C83.2 75.1 84 69.2 88.4 64.7C94.2 58.9 100.6 53.8 107.5 49.4C116.8 43.5 127 39.6 137.6 36.7C140 36.2 142 34.6 143.1 32.5C149.1 21.8 162.7 18 173.5 24C174.6 24.6 175.7 25.4 176.7 26.2C178.4 27.6 179.8 29.3 180.9 31.2C182.4 33.9 185 35.8 188.1 36.4C202.9 39.8 216.8 46.5 228.8 55.9C232.2 58.7 235.5 61.7 238.5 64.9C240.5 66.9 241.6 69.6 241.4 72.4Z" fill="#25a9e1" fill-rule="nonzero" opacity="1" stroke="none"/>
<path d="M72 103.4C77.6 103.2 82.3 107.7 82.5 113.3C82.5 114.2 82.4 115.1 82.2 116C80.4 123 79.3 130.2 79.1 137.4C78.9 145.2 79.9 152.9 81.8 160.4C82.3 162.4 83.9 163.9 85.9 164.4C98.5 168.2 104.9 179.8 101.3 192.4C100.6 194.8 101.6 196.4 103.1 197.9C111.2 206.1 120.9 212.6 131.6 217C135 218.4 138.6 219.5 142.2 220.7C147 222.2 150.1 226.9 149.5 231.9C149 236.8 145.2 240.5 140 241.4C138.3 241.5 136.7 241.3 135.1 240.7C116.7 235.7 100 225.7 86.8 211.8C84.7 209.4 81.7 208 78.5 208C62.5 207.3 52.5 188.9 60.7 175.1C62.2 172.7 62.5 169.7 61.6 167C56.2 148.6 56.3 129.1 61.8 110.8C63.4 105.5 66.5 103.4 72 103.4Z" fill="#1075bb" fill-rule="nonzero" opacity="1" stroke="none"/>
</g>
<g opacity="1">
<path d="M438.9 43.4L426.9 43.4L426.9 35L461 35L461 43.4L448.9 43.4L448.9 79.3L438.9 79.3C438.9 79.3 438.9 43.4 438.9 43.4Z" fill="#ffffff" fill-rule="nonzero" opacity="1" stroke="none"/>
<path d="M476.4 35L476.4 52L492.9 52L492.9 35L502.9 35L502.9 79.3L492.9 79.3L492.9 60.7L476.4 60.7L476.4 79.2L466.4 79.2L466.4 35L476.4 35Z" fill="#ffffff" fill-rule="nonzero" opacity="1" stroke="none"/>
<path d="M538 60.5L521.7 60.5L521.7 71L539.9 71L539.9 79.2L511.7 79.2L511.7 35L539 35L539 43.2L521.7 43.2L521.7 52.4L538 52.4L538 60.5Z" fill="#ffffff" fill-rule="nonzero" opacity="1" stroke="none"/>
<path d="M438.9 117.3L426.9 117.3L426.9 108.9L461 108.9L461 117.3L448.9 117.3L448.9 153.2L438.9 153.2C438.9 153.2 438.9 117.3 438.9 117.3Z" fill="#ffffff" fill-rule="nonzero" opacity="1" stroke="none"/>
<path d="M471.9 141.8L468.7 153.2L458.4 153.2L471.9 108.9L485.1 108.9L498.9 153.2L488 153.2L484.6 141.8L471.9 141.8ZM483.2 134.3L480.4 124.9C479.6 122.3 478.8 119 478.2 116.4L478 116.4C477.3 119 476.7 122.4 476 124.9L473.4 134.3L483.2 134.3Z" fill="#ffffff" fill-rule="nonzero" opacity="1" stroke="none"/>
<path d="M504.7 153.2L504.7 108.9L516.4 108.9L525.6 125.1C528.2 129.8 530.8 135.3 532.8 140.3L532.9 140.3C532.3 134.4 532.1 128.5 532.1 121.8L532.1 108.9L541.3 108.9L541.3 153.2L530.8 153.2L521.3 136.1C518.7 131.4 515.7 125.6 513.6 120.4L513.3 120.4C513.6 126.3 513.8 132.6 513.8 139.8L513.8 153.1L504.7 153.1L504.7 153.2Z" fill="#ffffff" fill-rule="nonzero" opacity="1" stroke="none"/>
<path d="M547.3 147.8L568.4 117.4L568.4 117.1L549.2 117.1L549.2 108.8L581.4 108.8L581.4 114.6L560.8 144.6L560.8 144.9L581.8 144.9L581.8 153.2L547.4 153.2L547.4 147.8L547.3 147.8Z" fill="#ffffff" fill-rule="nonzero" opacity="1" stroke="none"/>
<path d="M598.9 141.8L595.7 153.2L585.4 153.2L598.9 108.9L612.1 108.9L625.9 153.2L615 153.2L611.6 141.8L598.9 141.8ZM610.1 134.3L607.3 124.9C606.5 122.3 605.7 119 605.1 116.4L605 116.4C604.3 119 603.7 122.4 603 124.9L600.4 134.3L610.1 134.3Z" fill="#ffffff" fill-rule="nonzero" opacity="1" stroke="none"/>
<path d="M631.7 153.2L631.7 108.9L643.4 108.9L652.6 125.1C655.2 129.8 657.8 135.3 659.8 140.3L659.9 140.3C659.3 134.4 659.1 128.5 659.1 121.8L659.1 108.9L668.3 108.9L668.3 153.2L657.8 153.2L648.3 136.1C645.7 131.4 642.7 125.6 640.6 120.4L640.3 120.4C640.6 126.3 640.8 132.6 640.8 139.8L640.8 153.1L631.7 153.1L631.7 153.2Z" fill="#ffffff" fill-rule="nonzero" opacity="1" stroke="none"/>
<path d="M687.2 108.9L687.2 153.2L677.2 153.2L677.2 108.9L687.2 108.9Z" fill="#ffffff" fill-rule="nonzero" opacity="1" stroke="none"/>
<path d="M704.5 117.3L692.5 117.3L692.5 108.9L726.6 108.9L726.6 117.3L714.5 117.3L714.5 153.2L704.5 153.2C704.5 153.2 704.5 117.3 704.5 117.3Z" fill="#ffffff" fill-rule="nonzero" opacity="1" stroke="none"/>
<path d="M758.2 134.5L741.9 134.5L741.9 145L760.1 145L760.1 153.2L731.9 153.2L731.9 108.9L759.2 108.9L759.2 117.1L741.9 117.1L741.9 126.3L758.2 126.3L758.2 134.5Z" fill="#ffffff" fill-rule="nonzero" opacity="1" stroke="none"/>
<path d="M812.8 152C811 152.9 806.8 153.9 801.5 153.9C786.2 153.9 778.3 144.3 778.3 131.7C778.3 116.6 789.1 108.2 802.5 108.2C807.7 108.2 811.6 109.2 813.4 110.2L811.3 118.1C809.3 117.2 806.5 116.5 802.9 116.5C795 116.5 788.8 121.3 788.8 131.2C788.8 140.1 794.1 145.7 802.9 145.7C806 145.7 809.3 145.1 811.3 144.3L812.8 152Z" fill="#ffffff" fill-rule="nonzero" opacity="1" stroke="none"/>
<path d="M818.4 147.9C818.4 144.3 820.8 141.8 824.3 141.8C827.7 141.8 830.1 144.2 830.2 147.9C830.2 151.4 827.8 153.9 824.2 153.9C820.8 153.9 818.4 151.4 818.4 147.9Z" fill="#ffffff" fill-rule="nonzero" opacity="1" stroke="none"/>
<path d="M862.9 134.5L846.6 134.5L846.6 145L864.8 145L864.8 153.2L836.6 153.2L836.6 108.9L863.9 108.9L863.9 117.1L846.6 117.1L846.6 126.3L862.9 126.3L862.9 134.5Z" fill="#ffffff" fill-rule="nonzero" opacity="1" stroke="none"/>
<path d="M870 147.9C870 144.3 872.4 141.8 875.9 141.8C879.3 141.8 881.7 144.2 881.8 147.9C881.8 151.4 879.4 153.9 875.8 153.9C872.5 153.9 870 151.4 870 147.9Z" fill="#ffffff" fill-rule="nonzero" opacity="1" stroke="none"/>
<path d="M928.8 130.6C928.8 145.2 920.1 153.9 907 153.9C893.9 153.9 886.2 144 886.2 131.3C886.2 118 894.7 108.1 907.8 108.1C921.3 108.1 928.8 118.3 928.8 130.6ZM896.7 131.1C896.7 139.8 900.8 146 907.5 146C914.3 146 918.2 139.6 918.2 130.9C918.2 122.9 914.5 116 907.5 116C900.7 116 896.7 122.5 896.7 131.1Z" fill="#ffffff" fill-rule="nonzero" opacity="1" stroke="none"/>
<path d="M430.3 183.4C433.5 182.9 438.3 182.5 443.6 182.5C450.2 182.5 454.8 183.5 457.9 186C460.6 188.1 462 191.3 462 195.3C462 200.9 458 204.8 454.2 206.1L454.2 206.3C457.3 207.6 459 210.4 460.1 214.5C461.5 219.6 462.8 225.4 463.7 227.1L453.4 227.1C452.7 225.8 451.6 222.2 450.4 216.8C449.2 211.2 447.2 209.8 443.1 209.7L440.1 209.7L440.1 227.1L430.2 227.1L430.2 183.4L430.3 183.4ZM440.2 202.5L444.1 202.5C449.1 202.5 452.1 200 452.1 196.1C452.1 192.1 449.3 190 444.7 190C442.3 190 440.9 190.1 440.2 190.3L440.2 202.5Z" fill="#ffffff" fill-rule="nonzero" opacity="1" stroke="none"/>
<path d="M509.6 204.5C509.6 219.1 500.9 227.8 487.8 227.8C474.7 227.8 467 217.9 467 205.2C467 191.9 475.5 182 488.6 182C502.2 182 509.6 192.2 509.6 204.5ZM477.6 205C477.6 213.7 481.7 219.9 488.4 219.9C495.2 219.9 499.1 213.5 499.1 204.8C499.1 196.8 495.4 189.9 488.4 189.9C481.5 190 477.6 196.4 477.6 205Z" fill="#ffffff" fill-rule="nonzero" opacity="1" stroke="none"/>
<path d="M526.2 182.8L526.2 208.2C526.2 215.9 529.2 219.8 534.2 219.8C539.5 219.8 542.4 216.1 542.4 208.2L542.4 182.8L552.4 182.8L552.4 207.7C552.4 221.4 545.5 227.9 533.9 227.9C522.7 227.9 516.2 221.7 516.2 207.6L516.2 182.9L526.2 182.9L526.2 182.8Z" fill="#ffffff" fill-rule="nonzero" opacity="1" stroke="none"/>
<path d="M561 227.1L561 182.8L572.7 182.8L581.9 199C584.5 203.7 587.1 209.2 589.1 214.2L589.2 214.2C588.6 208.3 588.4 202.4 588.4 195.7L588.4 182.8L597.6 182.8L597.6 227.1L587.1 227.1L577.6 210C575 205.3 572 199.5 569.9 194.3L569.6 194.3C569.9 200.2 570.1 206.5 570.1 213.7L570.1 227L561 227L561 227.1Z" fill="#ffffff" fill-rule="nonzero" opacity="1" stroke="none"/>
<path d="M606.4 183.5C610.1 182.9 614.9 182.5 619.9 182.5C628.4 182.5 633.9 184.1 638.1 187.2C642.7 190.6 645.6 196.1 645.6 203.9C645.6 212.4 642.5 218.2 638.3 221.9C633.6 225.8 626.5 227.6 617.8 227.6C612.6 227.6 608.9 227.3 606.4 226.9C606.4 226.9 606.4 183.5 606.4 183.5ZM616.4 219.6C617.3 219.8 618.7 219.8 619.9 219.8C629 219.9 635 214.9 635 204.3C635 195.1 629.6 190.2 620.9 190.2C618.7 190.2 617.2 190.4 616.4 190.6L616.4 219.6Z" fill="#ffffff" fill-rule="nonzero" opacity="1" stroke="none"/>
<path d="M658.9 191.2L646.9 191.2L646.9 182.8L681 182.8L681 191.2L668.9 191.2L668.9 227.1L658.9 227.1C658.9 227.1 658.9 191.2 658.9 191.2Z" fill="#ffffff" fill-rule="nonzero" opacity="1" stroke="none"/>
<path d="M692 215.7L688.8 227.1L678.5 227.1L692 182.8L705.2 182.8L719 227.1L708.2 227.1L704.8 215.7L692 215.7ZM703.2 208.3L700.4 198.9C699.6 196.3 698.8 193 698.2 190.4L698.1 190.4C697.4 193 696.8 196.4 696.1 198.9L693.5 208.3L703.2 208.3Z" fill="#ffffff" fill-rule="nonzero" opacity="1" stroke="none"/>
<path d="M724.8 183.4C727.4 182.9 732.7 182.5 737.8 182.5C743.9 182.5 747.7 183.1 751 185C754.1 186.6 756.3 189.7 756.3 193.7C756.3 197.6 754 201.2 749 203.1L749 203.2C754.1 204.5 757.8 208.4 757.8 214.1C757.8 218.2 756 221.3 753.2 223.6C750 226.2 744.6 227.6 735.8 227.6C730.9 227.6 727.2 227.3 724.9 226.9L724.9 183.4L724.8 183.4ZM734.7 200.4L738 200.4C743.3 200.4 746.1 198.2 746.1 194.9C746.1 191.5 743.5 189.8 739 189.8C736.8 189.8 735.5 189.9 734.7 190.1C734.7 190.1 734.7 200.4 734.7 200.4ZM734.7 220C735.7 220.1 736.9 220.1 738.6 220.1C743.1 220.1 747.1 218.3 747.1 213.7C747.1 209.3 743.1 207.5 738.1 207.5L734.7 207.5L734.7 220Z" fill="#ffffff" fill-rule="nonzero" opacity="1" stroke="none"/>
<path d="M764.6 182.8L774.6 182.8L774.6 218.7L792.2 218.7L792.2 227.1L764.6 227.1L764.6 182.8Z" fill="#ffffff" fill-rule="nonzero" opacity="1" stroke="none"/>
<path d="M824.5 208.4L808.2 208.4L808.2 218.9L826.4 218.9L826.4 227.1L798.2 227.1L798.2 182.8L825.5 182.8L825.5 191L808.2 191L808.2 200.2L824.5 200.2L824.5 208.4Z" fill="#ffffff" fill-rule="nonzero" opacity="1" stroke="none"/>
</g>
<path d="M352.4 42.2L352.4 220.6" fill="none" opacity="1" stroke="#ffffff" stroke-linecap="square" stroke-linejoin="miter" stroke-width="5"/>
</g>
</svg>
